<svg width="159" height="219" viewBox="0 0 159 219" fill="none" xmlns="http://www.w3.org/2000/svg">
<path d="M136.875 141.572H101.949V218.121H136.875V141.572Z" fill="white"/>
<path d="M136.875 218.299H101.948C101.85 218.299 101.77 218.219 101.77 218.12V141.571C101.77 141.473 101.85 141.393 101.948 141.393H136.875C136.973 141.393 137.053 141.473 137.053 141.571V218.12C137.053 218.219 136.973 218.299 136.875 218.299ZM102.127 217.942H136.696V141.75H102.127V217.942Z" fill="black"/>
<path d="M136.875 141.572H124.705V218.121H136.875V141.572Z" fill="#B76E79"/>
<path d="M136.874 218.299H124.705C124.606 218.299 124.526 218.219 124.526 218.12V141.571C124.526 141.473 124.606 141.393 124.705 141.393H136.874C136.973 141.393 137.053 141.473 137.053 141.571V218.12C137.053 218.219 136.973 218.299 136.874 218.299ZM124.883 217.942H136.695V141.75H124.883V217.942Z" fill="black"/>
<path d="M86.4491 203.044H51.5228V218.12H86.4491V203.044Z" fill="white"/>
<path d="M51.5238 218.299C51.4765 218.299 51.4311 218.28 51.3975 218.247C51.3641 218.213 51.3452 218.168 51.3452 218.12V203.044C51.3452 202.945 51.4252 202.865 51.5238 202.865L86.4498 202.865C86.4971 202.865 86.5424 202.884 86.576 202.918C86.6094 202.951 86.6284 202.997 86.6284 203.044V218.12C86.6284 218.219 86.5484 218.299 86.4498 218.299L51.5238 218.299ZM51.7024 203.223V217.942L86.2712 217.941V203.222L51.7024 203.223Z" fill="#16293B"/>
<path d="M86.4482 203.044H74.2787V218.12H86.4482V203.044Z" fill="#B76E79"/>
<path d="M86.4483 218.299H74.2788C74.1801 218.299 74.1002 218.219 74.1002 218.12V203.044C74.1002 202.945 74.1801 202.865 74.2788 202.865H86.4483C86.5469 202.865 86.6269 202.945 86.6269 203.044V218.12C86.6269 218.219 86.5469 218.299 86.4483 218.299ZM74.4573 217.941H86.2697V203.222H74.4573V217.941Z" fill="black"/>
<path d="M88.0715 184.49L86.9274 199.239C86.8408 200.356 86.5018 201.413 85.9754 202.356C85.7375 202.783 85.2772 203.043 84.8022 203.043H80.8194C80.3662 203.043 79.9721 202.787 79.7986 202.383L78.9626 200.409C78.591 199.526 77.3272 199.526 76.8186 200.409L75.6763 202.383C75.4401 202.787 75.0063 203.043 74.5531 203.043H47.4793C46.7299 203.043 46.2012 202.387 46.3464 201.639C46.6599 200.069 47.1621 198.482 47.9657 197.504C49.7124 195.378 53.8073 193.878 57.4644 192.908C61.9272 191.721 65.7865 188.651 67.8908 184.499L67.8915 184.49H88.0715Z" fill="#2C3E50"/>
<path d="M46.4926 200.973C46.4402 201.194 46.3908 201.417 46.3464 201.639C46.2012 202.387 46.7299 203.044 47.4793 203.044H74.5532C75.0071 203.044 75.442 202.788 75.6764 202.383L76.4923 200.973H46.4926ZM79.2014 200.973L79.7986 202.383C79.9701 202.788 80.3653 203.044 80.8193 203.044H84.8022C85.2756 203.044 85.7382 202.782 85.9759 202.356C86.22 201.918 86.4189 201.454 86.5759 200.973H79.2014ZM59.4355 188.606C59.3458 186.712 59.9974 185.139 60.9188 185.026C62.1094 184.88 62.6844 186.912 62.7468 188.225C62.8365 190.119 62.1864 191.691 61.267 191.804C60.0417 191.955 59.4947 189.857 59.4355 188.606ZM60.9626 185.38C60.3277 185.458 59.706 186.766 59.7922 188.589C59.8438 189.675 60.3356 191.559 61.2232 191.45C61.8563 191.372 62.4763 190.064 62.3901 188.242C62.3443 187.276 61.8855 185.263 60.9626 185.38Z" fill="#151618"/>
<path d="M57.602 191.738C56.4267 191.163 54.8529 189.829 55.4317 188.778C55.8886 187.949 57.5539 187.94 59.2246 188.757C60.3621 189.313 61.2145 190.12 61.4491 190.862C61.5485 191.176 61.5306 191.471 61.3968 191.714C60.8048 192.789 58.7052 192.278 57.602 191.738ZM55.7446 188.95C55.2913 189.773 56.8248 190.961 57.7589 191.417C59.5238 192.281 61.49 192.178 61.1086 190.969C60.9056 190.327 60.1043 189.585 59.0676 189.078C58.1552 188.631 56.2045 188.114 55.7446 188.95ZM88.0708 184.49L87.4516 192.473C86.8193 192.591 86.17 192.647 85.5164 192.647C80.4355 192.647 76.4382 189.182 75.5994 184.49H88.0708Z" fill="#16293B"/>
<path d="M45.0789 186.386L36.8737 198.695C36.252 199.628 35.4399 200.384 34.5196 200.95C34.1038 201.206 33.5747 201.208 33.1603 200.976L29.6854 199.03C29.2899 198.809 29.0715 198.392 29.1177 197.955L29.3529 195.824C29.46 194.872 28.3574 194.254 27.4823 194.776L25.5211 195.94C25.1174 196.178 24.6135 196.189 24.2182 195.968L0.596781 182.738C-0.0571371 182.372 -0.197528 181.541 0.294571 180.959C1.33508 179.743 2.54881 178.603 3.728 178.143C6.29096 177.141 10.5967 177.833 14.2612 178.774C18.735 179.919 23.6022 179.127 27.4673 176.532L27.4722 176.525L45.0789 186.386Z" fill="#2C3E50"/>
<path d="M0.747836 180.448C0.593886 180.616 0.44213 180.786 0.294571 180.958C-0.197528 181.54 -0.0571371 182.371 0.596781 182.737L24.2183 195.967C24.6143 196.189 25.1188 196.179 25.5212 195.94L26.9221 195.108L0.747836 180.448ZM29.2857 196.432L29.1178 197.954C29.0695 198.391 29.2892 198.808 29.6853 199.029L33.1603 200.976C33.5733 201.207 34.1049 201.205 34.5204 200.949C34.9473 200.687 35.3477 200.379 35.7198 200.036L29.2857 196.432ZM18.1184 179.669C17.0088 179.215 17.492 177.168 18.0835 175.983C18.9304 174.287 20.2683 173.233 21.1269 173.585C22.2351 174.037 21.7469 176.091 21.1585 177.269C20.5974 178.392 19.225 180.121 18.1184 179.669ZM18.4029 176.143C17.9141 177.122 17.4274 179 18.2534 179.338C18.843 179.58 20.0242 178.741 20.8392 177.109C21.3254 176.135 21.8168 174.253 20.9919 173.915C20.1265 173.562 18.8821 175.183 18.4029 176.143Z" fill="#16293B"/>
<path d="M14.9537 177.822C14.2088 176.746 13.488 174.812 14.5066 174.178C15.3097 173.678 16.7676 174.484 17.8259 176.013C18.5651 177.081 19.2952 179.02 18.276 179.655C17.2666 180.283 15.7043 178.906 14.9537 177.822ZM14.6954 174.481C13.8979 174.977 14.6553 176.763 15.2472 177.618C16.1653 178.945 17.467 179.738 18.0872 179.352C18.882 178.857 18.1222 177.069 17.5325 176.216C16.9417 175.363 15.5001 173.981 14.6954 174.481ZM45.0788 186.387L40.6375 193.049C40.0286 192.843 39.4345 192.575 38.8642 192.255C34.4312 189.772 32.637 184.795 34.1977 180.292L45.0788 186.387Z" fill="#16293B"/>
<path d="M25.53 49.6543C25.53 49.6543 40.0391 105.624 65.3225 102.591C69.0066 102.152 72.3977 100.898 75.5056 99.0741C86.1689 92.8327 93.5068 79.9307 97.762 70.2783C100.789 63.4154 102.26 58.1949 102.26 58.1949L109.901 39.7642C109.901 39.7642 78.1235 38.89 67.7533 68.1961C59.0055 92.9338 43.799 40.8205 43.799 40.8205L25.53 49.6543Z" fill="#2C3E50"/>
<path d="M75.507 99.0725C86.1702 92.8312 93.5082 79.9292 97.7633 70.2768L88.2574 55.9597C88.2574 55.9597 72.8741 70.4132 75.507 99.0725Z" fill="#16293C"/>
<path d="M39.3245 40.0518L36.0044 33.1307C36.0044 33.1307 32.5941 22.0956 30.2324 22.3523C27.4515 22.6546 31.5758 34.0676 31.5758 34.0676C30.3068 31.9089 28.217 32.6935 28.8339 34.6705C27.6071 33.417 25.912 34.0478 26.4736 35.7239C26.4736 35.7239 24.4099 35.5276 25.1328 38.4469C25.8557 41.3663 27.5189 43.9379 28.914 45.3144C29.4626 45.8556 30.136 46.3664 30.6632 47.1715" fill="white"/>
<path d="M30.6631 47.352C30.6049 47.3521 30.5478 47.3236 30.5134 47.2713C30.1318 46.6886 29.6728 46.2665 29.2289 45.8583C29.077 45.7184 28.9285 45.582 28.7883 45.4435C27.5015 44.1739 25.7268 41.5915 24.9591 38.4918C24.6844 37.3819 24.7661 36.5625 25.2025 36.0563C25.528 35.6788 25.9659 35.5765 26.2384 35.5517C26.0817 34.8782 26.2643 34.316 26.7473 34.0205C27.2532 33.7107 27.9469 33.794 28.5521 34.2046C28.467 33.3886 28.8657 32.8939 29.2919 32.7051C29.7769 32.4902 30.4457 32.5797 31.0659 33.1416C30.2447 30.6883 28.3272 24.4476 29.4274 22.6846C29.615 22.3839 29.8793 22.213 30.2128 22.1768C32.6593 21.9115 35.8212 31.9361 36.1746 33.0799L39.485 39.9765C39.5278 40.0655 39.4902 40.1721 39.4013 40.2147C39.3111 40.2577 39.2055 40.2196 39.1632 40.131L35.8431 33.2098C34.8966 30.1551 32.07 22.3374 30.2512 22.5317C30.0292 22.5559 29.8588 22.6677 29.7303 22.8736C28.4714 24.8908 31.7103 33.9179 31.7432 34.0088C31.7746 34.0956 31.7347 34.1919 31.6513 34.2311C31.5686 34.2702 31.4682 34.2397 31.4214 34.16C30.7785 33.0655 29.943 32.8082 29.4364 33.0316C28.9412 33.2509 28.7713 33.8741 29.0037 34.6193C29.0284 34.6981 28.9958 34.7834 28.925 34.8257C28.8543 34.8681 28.7634 34.8563 28.7058 34.7973C28.0515 34.1286 27.3284 34.0836 26.9336 34.3252C26.5483 34.5608 26.4397 35.0633 26.6427 35.6692C26.6616 35.7263 26.6504 35.7891 26.6133 35.8364C26.5759 35.8837 26.5179 35.9098 26.4571 35.9037C26.4501 35.9035 25.8446 35.8553 25.4707 36.2922C25.1163 36.7061 25.061 37.4173 25.3058 38.406C26.0553 41.4336 27.7855 43.9523 29.0389 45.1893C29.1764 45.3249 29.3218 45.4585 29.4708 45.5955C29.9092 45.9987 30.4063 46.4559 30.8123 47.0757C30.8664 47.1582 30.8432 47.2688 30.7608 47.3228C30.7306 47.3426 30.6965 47.352 30.6631 47.352Z" fill="black"/>
<path d="M36.8024 37.9566C35.7262 36.9294 36.5089 35.2203 36.5089 35.2203C36.5089 35.2203 34.4139 34.6573 33.7697 34.3369C32.4664 33.6886 32.5267 32.3915 33.7697 31.8422C35.1988 31.2105 37.8785 31.1086 39.9818 32.5271C42.0851 33.9456 40.0892 37.2864 39.6394 38.7881C39.3501 39.7539 39.4362 40.5573 39.9886 42.8057" fill="white"/>
<path d="M39.9894 42.9823C39.9092 42.9823 39.8362 42.9277 39.8163 42.8463C39.2825 40.6741 39.1575 39.7754 39.4693 38.7349C39.5592 38.4345 39.7042 38.0757 39.8719 37.6603C40.5406 36.0035 41.4565 33.7345 39.8828 32.6731C37.9397 31.3628 35.3203 31.3502 33.8427 32.0035C33.3212 32.234 33.0041 32.6242 32.9944 33.0473C32.9844 33.4885 33.2963 33.8995 33.85 34.175C34.4712 34.4839 36.5354 35.0403 36.556 35.0459C36.6066 35.0596 36.6487 35.0949 36.6711 35.1423C36.6935 35.1898 36.6938 35.2447 36.6721 35.2925C36.6649 35.3085 35.9567 36.8997 36.9267 37.8254C36.9979 37.8935 37.0006 38.0065 36.9326 38.0778C36.8646 38.1493 36.7516 38.1518 36.6801 38.0837C35.735 37.1818 36.0907 35.8378 36.2701 35.338C35.7318 35.1893 34.2341 34.7647 33.6911 34.4947C33.0081 34.155 32.624 33.6245 32.6374 33.0392C32.6501 32.4741 33.0469 31.9648 33.6983 31.6769C35.3029 30.9676 38.0112 30.9802 40.0826 32.377C41.8959 33.6001 40.8772 36.1238 40.2031 37.7939C40.0387 38.2011 39.8968 38.5528 39.8116 38.8373C39.5378 39.7506 39.6036 40.4839 40.163 42.7611C40.1867 42.8568 40.1279 42.9536 40.0323 42.977C40.0181 42.9806 40.0036 42.9823 39.9894 42.9823Z" fill="black"/>
<path d="M27.3507 37.8708C27.2824 37.8708 27.2172 37.8313 27.1875 37.7649L26.3117 35.7986C26.2716 35.7085 26.3122 35.603 26.4021 35.5628C26.4923 35.5228 26.5979 35.563 26.638 35.6533L27.5138 37.6195C27.5539 37.7097 27.5133 37.8152 27.4234 37.8553C27.3997 37.8658 27.3751 37.8708 27.3507 37.8708Z" fill="black"/>
<path d="M29.6675 36.6388C29.6007 36.6388 29.5365 36.6009 29.5061 36.5363L28.5967 34.6085C28.5546 34.5193 28.5927 34.4129 28.6819 34.3709C28.77 34.3289 28.8771 34.3668 28.9195 34.4562L29.8289 36.384C29.871 36.4732 29.8329 36.5796 29.7437 36.6216C29.719 36.6333 29.6931 36.6388 29.6675 36.6388Z" fill="black"/>
<path d="M32.2055 35.7632C32.1357 35.7632 32.0695 35.722 32.0408 35.6535L31.3257 33.9427C31.2876 33.8518 31.3304 33.7471 31.4216 33.7092C31.5125 33.6712 31.6171 33.714 31.655 33.805L32.3701 35.5157C32.4082 35.6067 32.3654 35.7113 32.2742 35.7493C32.2518 35.7587 32.2284 35.7632 32.2055 35.7632Z" fill="black"/>
<path d="M142.457 116.876L133.153 129.176L128.212 111.727L142.457 116.876Z" fill="#16293C"/>
<path d="M24.3986 174.787L47.7718 188.119C47.7718 188.119 50.1066 180.371 53.5885 170.759C58.3188 157.706 65.1766 141.216 71.1955 136C80.7887 127.78 110.792 135.069 118.23 128.738C124.047 123.786 113.656 101.332 113.656 101.332C113.656 101.332 60.9163 103.723 47.7718 114.194C33.9601 125.196 24.3986 174.787 24.3986 174.787Z" fill="white"/>
<path d="M47.6843 188.274L24.3112 174.943C24.2447 174.905 24.2098 174.829 24.2242 174.754C24.3201 174.257 33.9567 124.971 47.6614 114.055C60.7005 103.668 113.121 101.178 113.649 101.154C113.716 101.152 113.789 101.192 113.819 101.258C114.246 102.18 124.199 123.891 118.347 128.875C114.824 131.873 106.321 131.86 97.3128 131.846C87.3865 131.83 77.1194 131.814 71.939 135.634C64.9076 140.824 56.7309 162.615 53.7573 170.821C50.3169 180.318 47.967 188.093 47.9436 188.171C47.9104 188.281 47.7832 188.331 47.6843 188.274ZM24.5996 174.696L47.6669 187.853C48.0694 186.536 50.2962 179.327 53.4215 170.699C58.1287 157.71 65.0132 141.122 71.0796 135.866C71.313 135.666 71.5245 135.496 71.727 135.347C77.0016 131.457 87.3237 131.473 97.3133 131.489C106.247 131.503 114.693 131.516 118.115 128.603C123.558 123.969 114.316 103.218 113.545 101.517C110.721 101.655 60.5311 104.259 47.8841 114.334C34.6188 124.901 25.1493 171.913 24.5996 174.696Z" fill="black"/>
<path d="M69.7938 115.069C69.5445 115.03 69.2949 114.997 69.0458 114.971C68.9476 114.961 68.8764 114.873 68.8866 114.775C68.8966 114.677 68.9833 114.606 69.0826 114.616C69.3382 114.642 69.5938 114.676 69.8496 114.716C69.947 114.732 70.0135 114.823 69.998 114.92C69.9827 115.017 69.8916 115.084 69.7938 115.069ZM39.936 172.624C39.8386 172.609 39.7721 172.517 39.7875 172.42L40.0291 170.896C40.0448 170.799 40.1367 170.732 40.2334 170.748C40.3308 170.763 40.3973 170.855 40.3818 170.952L40.1402 172.476C40.1249 172.572 40.0342 172.64 39.936 172.624ZM40.4194 169.576C40.322 169.561 40.2555 169.469 40.271 169.372L40.5126 167.848C40.528 167.751 40.6187 167.685 40.7168 167.7C40.8142 167.715 40.8807 167.807 40.8653 167.904L40.6237 169.428C40.6084 169.525 40.5177 169.592 40.4194 169.576ZM40.9027 166.529C40.8053 166.513 40.7388 166.422 40.7542 166.324L40.9958 164.801C41.0115 164.703 41.1034 164.637 41.2001 164.652C41.2975 164.668 41.364 164.759 41.3485 164.857L41.1069 166.38C41.0916 166.477 41.0009 166.544 40.9027 166.529ZM41.3861 163.481C41.2887 163.466 41.2222 163.374 41.2377 163.277L41.4793 161.753C41.4947 161.656 41.5857 161.589 41.6835 161.605C41.7809 161.62 41.8474 161.711 41.832 161.809L41.5904 163.333C41.5751 163.429 41.4844 163.497 41.3861 163.481ZM41.8694 160.433C41.772 160.418 41.7055 160.326 41.7209 160.229L41.9625 158.705C41.9782 158.608 42.0704 158.542 42.1668 158.557C42.2642 158.572 42.3307 158.664 42.3152 158.761L42.0736 160.285C42.0583 160.382 41.9676 160.449 41.8694 160.433ZM42.3523 157.386C42.2549 157.37 42.1884 157.279 42.2039 157.181L42.4455 155.658C42.4609 155.56 42.5526 155.494 42.6497 155.509C42.7471 155.525 42.8136 155.616 42.7982 155.714L42.5566 157.237C42.5413 157.334 42.4506 157.401 42.3523 157.386ZM42.8358 154.338C42.7384 154.323 42.6719 154.231 42.6874 154.134L42.929 152.61C42.9444 152.513 43.0373 152.447 43.1332 152.462C43.2306 152.477 43.2971 152.569 43.2817 152.666L43.0401 154.19C43.0247 154.286 42.9341 154.354 42.8358 154.338ZM43.319 151.291C43.2216 151.275 43.1551 151.184 43.1706 151.086L43.4122 149.562C43.4279 149.465 43.5195 149.399 43.6164 149.414C43.7138 149.429 43.7803 149.521 43.7649 149.618L43.5233 151.142C43.508 151.239 43.4173 151.306 43.319 151.291ZM43.8304 148.245C43.8209 148.245 43.8115 148.244 43.802 148.243C43.7046 148.227 43.6384 148.136 43.6538 148.038L43.8959 146.514C43.9116 146.417 44.0048 146.351 44.1004 146.366C44.1978 146.382 44.2641 146.474 44.2486 146.571L44.0065 148.095C43.9923 148.183 43.9166 148.245 43.8304 148.245ZM44.2902 145.196C44.1931 145.18 44.1271 145.088 44.1433 144.991C44.227 144.483 44.3124 143.975 44.4006 143.468C44.4173 143.37 44.5097 143.306 44.6068 143.322C44.7042 143.339 44.7692 143.432 44.7523 143.529C44.6646 144.035 44.5792 144.542 44.4955 145.049C44.4791 145.148 44.3846 145.212 44.2902 145.196ZM44.8155 142.155C44.7186 142.137 44.6544 142.044 44.6723 141.947C44.7657 141.44 44.8624 140.934 44.9632 140.429C44.9824 140.332 45.0766 140.269 45.1732 140.289C45.2701 140.308 45.3326 140.402 45.3135 140.499C45.2131 141.002 45.1164 141.507 45.0235 142.012C45.0059 142.107 44.9145 142.173 44.8155 142.155ZM45.4146 139.128C45.3184 139.107 45.2572 139.011 45.2783 138.915C45.3882 138.411 45.5028 137.908 45.6228 137.407C45.646 137.311 45.7441 137.253 45.838 137.275C45.9339 137.298 45.993 137.395 45.97 137.491C45.8505 137.989 45.7364 138.489 45.6271 138.991C45.6066 139.085 45.5143 139.149 45.4146 139.128ZM46.1282 136.126C46.0331 136.101 45.9763 136.003 46.0014 135.908C46.1339 135.408 46.2729 134.911 46.4191 134.417C46.447 134.323 46.5454 134.268 46.6408 134.297C46.7355 134.325 46.7895 134.424 46.7614 134.518C46.6162 135.009 46.4782 135.503 46.3467 135.999C46.3221 136.092 46.2268 136.151 46.1282 136.126ZM47.0506 133.174C47.0319 133.174 47.0132 133.171 46.9945 133.165C46.9009 133.134 46.8501 133.033 46.881 132.939C47.0434 132.449 47.2135 131.961 47.3923 131.477C47.4264 131.385 47.5308 131.338 47.6215 131.372C47.7141 131.406 47.7615 131.509 47.7271 131.601C47.5497 132.081 47.3811 132.565 47.2202 133.051C47.1953 133.126 47.1256 133.174 47.0506 133.174ZM48.1221 130.281C47.9955 130.281 47.9083 130.152 47.9572 130.034C48.1565 129.553 48.3662 129.076 48.5805 128.615C48.6223 128.526 48.7294 128.487 48.8176 128.529C48.907 128.57 48.9459 128.676 48.9043 128.766C48.692 129.222 48.4846 129.694 48.287 130.171C48.2586 130.24 48.1921 130.281 48.1221 130.281ZM49.3417 127.465C49.2542 127.419 49.2204 127.311 49.2662 127.224C49.5076 126.762 49.7604 126.305 50.0172 125.867C50.0667 125.782 50.1766 125.753 50.2613 125.803C50.3465 125.853 50.3751 125.962 50.325 126.047C50.0712 126.481 49.8214 126.932 49.5825 127.389C49.5374 127.476 49.4304 127.511 49.3417 127.465ZM50.8892 124.796C50.8073 124.741 50.7851 124.63 50.8399 124.548C51.1256 124.12 51.4295 123.695 51.7428 123.283C51.8019 123.205 51.9142 123.189 51.9929 123.249C52.0714 123.309 52.0866 123.421 52.0268 123.5C51.7179 123.905 51.4185 124.325 51.1368 124.747C51.0817 124.829 50.9702 124.851 50.8892 124.796ZM52.7409 122.328C52.6664 122.264 52.6582 122.151 52.7227 122.076C53.0612 121.685 53.4152 121.3 53.7749 120.933C53.8436 120.862 53.957 120.861 54.0272 120.93C54.0977 120.999 54.0989 121.112 54.0299 121.183C53.6755 121.545 53.3265 121.924 52.9927 122.31C52.9282 122.385 52.8158 122.393 52.7409 122.328ZM54.8828 120.109C54.8168 120.036 54.8228 119.923 54.896 119.857C55.2811 119.51 55.6806 119.173 56.0839 118.855C56.1604 118.794 56.273 118.806 56.3347 118.884C56.3958 118.961 56.3825 119.074 56.3051 119.135C55.908 119.448 55.5145 119.78 55.1351 120.122C55.0622 120.188 54.9494 120.183 54.8828 120.109ZM57.2892 118.181C57.2334 118.099 57.2541 117.988 57.3355 117.933C57.766 117.638 58.2076 117.357 58.648 117.099C58.7319 117.049 58.8425 117.078 58.8921 117.163C58.9421 117.248 58.9135 117.357 58.8286 117.407C58.3952 117.661 57.961 117.937 57.5373 118.227C57.4549 118.283 57.3445 118.261 57.2892 118.181ZM59.936 116.602C59.8927 116.514 59.9293 116.407 60.0179 116.363C60.487 116.134 60.966 115.922 61.4417 115.735C61.5334 115.699 61.6372 115.744 61.6734 115.836C61.7095 115.928 61.6644 116.031 61.5727 116.067C61.1054 116.251 60.6352 116.459 60.1749 116.684C60.0874 116.727 59.98 116.692 59.936 116.602ZM62.793 115.449C62.7649 115.354 62.8187 115.255 62.9131 115.226C63.4145 115.077 63.9231 114.95 64.4248 114.849C64.5199 114.83 64.6153 114.893 64.635 114.989C64.6544 115.086 64.5916 115.18 64.495 115.199C64.0041 115.298 63.5061 115.422 63.0152 115.569C62.92 115.597 62.8211 115.543 62.793 115.449ZM65.8064 114.811C65.7965 114.713 65.8677 114.626 65.9658 114.616C66.4842 114.563 67.0083 114.535 67.5239 114.535C67.6225 114.535 67.7025 114.615 67.7025 114.714C67.7025 114.812 67.6225 114.892 67.5239 114.892C67.0205 114.893 66.5086 114.919 66.0022 114.971C65.9024 114.981 65.8164 114.908 65.8064 114.811ZM39.573 174.915C39.4757 174.899 39.4091 174.808 39.4246 174.711L39.5444 173.955C39.5598 173.857 39.6528 173.791 39.7489 173.806C39.8463 173.822 39.9125 173.913 39.8971 174.011L39.7773 174.766C39.762 174.863 39.6714 174.93 39.573 174.915ZM53.5876 170.76C58.3179 157.707 65.1757 141.216 71.1946 136.001L59.6318 123.948C59.6318 123.948 47.5991 138.417 53.5876 170.76Z" fill="#151618"/>
<path d="M89.3684 184.445L64.2937 184.534C64.2937 184.534 51.1903 127.242 62.2986 120.45C86.8219 105.455 135.847 111.287 135.847 111.287C135.847 111.287 147.197 137.822 128.998 141.068C116.523 143.294 96.025 136.436 90.9114 143.564C85.955 150.473 89.3684 184.445 89.3684 184.445Z" fill="white"/>
<path d="M64.2948 184.714C64.2116 184.714 64.1394 184.657 64.1207 184.575C63.5847 182.231 51.1162 127.08 62.2068 120.298C86.5018 105.444 135.379 111.053 135.87 111.111C135.933 111.119 135.987 111.16 136.013 111.218C136.078 111.372 142.503 126.622 137.768 135.392C136.065 138.545 133.126 140.515 129.031 141.245C124.032 142.137 117.77 141.579 111.714 141.039C102.642 140.23 94.0727 139.466 91.0575 143.669C86.1971 150.444 89.5132 184.09 89.5473 184.429C89.5578 184.534 89.4751 184.625 89.3705 184.625L64.2956 184.714H64.2948ZM114.01 110.381C97.7689 110.381 76.1249 112.207 62.3931 120.603C51.7843 127.09 63.7294 181.2 64.4376 184.356L89.1727 184.269C88.8743 181.218 85.9705 150.148 90.7676 143.461C93.9016 139.093 102.569 139.865 111.746 140.683C117.779 141.221 124.017 141.777 128.968 140.894C132.951 140.183 135.805 138.275 137.454 135.222C141.913 126.961 136.26 112.757 135.724 111.454C134.658 111.335 125.743 110.381 114.01 110.381Z" fill="black"/>
<path d="M84.424 104.033L84.6286 89.854L84.6397 89.1493C81.5181 62.7653 87.2745 44.145 109.354 39.7988C109.354 39.7988 122.643 38.7576 125.549 41.2597C142.156 55.5584 141.593 108.666 142.457 116.874C112.489 123.446 96.3388 101.626 84.424 104.033Z" fill="#2C3E50"/>
<path d="M124.073 74.723C124.245 77.076 123.785 79.5615 122.326 81.4154C120.708 83.4706 118.123 84.4774 115.631 85.2729C113.14 86.0684 110.523 86.791 108.543 88.5012C107.732 89.2027 107.006 90.2557 107.32 91.2818C107.607 92.2232 108.628 92.7052 109.555 93.0353C115.072 94.9994 121.098 95.5141 126.868 94.5141C130.005 93.9704 133.26 92.8558 135.215 90.3426C137.379 87.5603 137.47 83.699 136.981 80.208C136.47 76.5554 135.326 72.7984 132.659 70.2509C130.581 68.2662 127.657 67.2262 124.795 67.3645C123.087 67.447 122.423 67.7266 122.927 69.4481C123.435 71.1849 123.939 72.9077 124.073 74.723Z" fill="#16293C"/>
<path d="M97.7692 96.9511C95.212 101.363 95.96 106.118 95.4243 107.65C110.242 110.409 158.191 117.661 158.519 95.905C159.156 53.2723 124.513 40.6736 124.513 40.6736L116.377 61.8686C116.377 61.8686 134.61 79.9051 130.674 85.5349C125.974 92.2563 101.898 87.3391 95.121 85.7977C96.8342 86.3334 100.655 91.9885 97.7692 96.9511Z" fill="#2C3E50"/>
<path d="M118.744 89.1555C110.08 89.1557 99.4758 86.9716 95.0832 85.9726C95.07 85.9696 95.057 85.965 95.0448 85.9591C94.9437 85.9388 94.9379 85.9403 94.9138 85.9313C94.8356 85.9123 94.7775 85.8418 94.7775 85.7578C94.7778 85.6395 94.8916 85.5481 95.0184 85.5906C95.1522 85.6202 95.1542 85.6181 95.18 85.6283C102.333 87.2544 125.923 92.0202 130.529 85.4333C134.335 79.9903 116.434 62.1756 116.253 61.9963C116.183 61.9269 116.182 61.8139 116.251 61.7438C116.321 61.6736 116.433 61.6728 116.504 61.7424C117.253 62.4832 134.799 79.9502 130.821 85.638C128.98 88.2717 124.254 89.1554 118.744 89.1555ZM128.307 111.226C115.427 111.226 101.872 109.032 95.3933 107.826C95.2964 107.808 95.2324 107.715 95.2503 107.618C95.2685 107.521 95.3636 107.456 95.4585 107.475C104.412 109.142 126.906 112.699 142.372 109.718C142.469 109.701 142.562 109.763 142.581 109.86C142.6 109.957 142.536 110.05 142.439 110.069C138.124 110.9 133.265 111.226 128.307 111.226Z" fill="#3A3C42"/>
<path d="M92.0593 96.952C92.0593 97.1846 92.0593 97.4171 92.0644 97.6444C92.1301 102.046 92.8376 105.766 93.818 107.342C94.1465 107.868 94.5003 108.156 94.8742 108.156C96.4227 108.156 94.6734 102.295 97.77 96.952C100.656 91.9894 96.835 86.3344 95.1218 85.7987C95.1168 85.7936 95.1118 85.7936 95.1118 85.7936C95.0612 85.7835 95.0157 85.7734 94.9702 85.7633C94.9602 85.7533 94.8884 85.7532 94.8742 85.7532C94.1617 85.7532 93.5097 86.8094 93.0145 88.5529C92.4283 90.6047 92.0593 93.6066 92.0593 96.952Z" fill="#16293C"/>
<path d="M89.6891 110.203C89.6891 110.203 90.4169 106.529 92.8275 104.634C93.631 104.007 94.6165 103.573 95.8243 103.542C96.0163 101.582 96.456 99.2216 97.77 96.9524C99.1951 94.5065 98.9828 91.8887 98.2046 89.8015C96.7188 89.8217 94.667 90.039 92.5192 90.8375C89.4718 91.9695 86.2325 94.269 84.1705 98.8475C79.2938 109.662 89.6891 110.203 89.6891 110.203Z" fill="white"/>
<path d="M89.6874 110.381C89.6844 110.381 89.6812 110.381 89.6782 110.381C89.5021 110.372 85.3449 110.122 83.5151 107.121C82.2664 105.074 82.4316 102.265 84.0063 98.7734C85.788 94.817 88.6308 92.0904 92.4553 90.6695C94.6918 89.8381 96.814 89.6412 98.2004 89.6224L98.2029 89.6223C98.2774 89.6223 98.3441 89.6686 98.3703 89.7385C99.3283 92.3084 99.1693 94.902 97.9224 97.0417C96.5375 99.4335 96.1621 101.907 96.0002 103.559C95.9915 103.649 95.9173 103.718 95.8271 103.72C94.7712 103.747 93.7983 104.101 92.9357 104.774C90.6046 106.607 89.8698 110.201 89.8625 110.237C89.8458 110.321 89.7724 110.381 89.6874 110.381ZM98.0788 89.9816C96.7198 90.0103 94.7013 90.2155 92.5798 91.0042C88.848 92.3906 86.0729 95.0539 84.3318 98.9202C82.8087 102.298 82.6363 104.995 83.82 106.935C85.3636 109.467 88.7877 109.938 89.5462 110.012C89.7161 109.277 90.5363 106.206 92.7155 104.493C93.5973 103.805 94.5872 103.428 95.6605 103.369C95.8341 101.687 96.2366 99.2407 97.6138 96.8623C99.1788 94.1765 98.6019 91.4436 98.0788 89.9816Z" fill="black"/>
<path d="M84.1019 109.922V115.702H122.717C122.717 112.51 120.129 109.922 116.937 109.922H84.1019Z" fill="#B76E79"/>
<path d="M21.872 82.3467L38.9635 114.825C39.2477 115.365 39.8076 115.703 40.4178 115.703H91.8213C93.0579 115.703 93.8515 114.388 93.2756 113.294L76.1841 80.8161C75.8999 80.2761 75.34 79.938 74.7298 79.938H23.3263C22.0897 79.938 21.2961 81.2524 21.872 82.3467Z" fill="#B76E79"/>
<path d="M55.8113 100.622C54.3003 100.622 52.5575 99.397 51.9258 97.8912C51.2734 96.3355 52.0257 95.0195 53.6111 95.0195C55.1235 95.0195 56.8681 96.2458 57.5003 97.7531C58.1522 99.3074 57.4002 100.622 55.8113 100.622ZM53.6111 95.3767C52.2646 95.3767 51.7092 96.4528 52.2551 97.753C52.8359 99.1382 54.4313 100.265 55.8113 100.265C57.1636 100.265 57.715 99.1886 57.171 97.8912C56.5894 96.5047 54.9925 95.3767 53.6111 95.3767Z" fill="black"/>
<path d="M110.451 113.136C110.451 113.542 110.78 113.872 111.187 113.872H116.597C117.003 113.872 117.333 113.542 117.333 113.136C117.333 112.729 117.003 112.4 116.597 112.4H111.187C110.78 112.4 110.451 112.729 110.451 113.136ZM106.012 113.136C106.012 113.542 106.342 113.872 106.748 113.872H107.625C108.032 113.872 108.361 113.542 108.361 113.136C108.361 112.729 108.032 112.4 107.625 112.4H106.748C106.342 112.4 106.012 112.729 106.012 113.136Z" fill="white"/>
<path d="M84.546 109.965H36.3338C36.2352 109.965 36.1552 109.885 36.1552 109.786C36.1552 109.688 36.2352 109.608 36.3338 109.608H84.546C84.6446 109.608 84.7246 109.688 84.7246 109.786C84.7246 109.885 84.6446 109.965 84.546 109.965ZM28.9786 58.4812C28.9173 58.4812 28.858 58.4498 28.8246 58.3934C28.7743 58.3084 28.8027 58.199 28.8877 58.1489L44.0385 49.203C44.1234 49.1529 44.233 49.1812 44.2829 49.266C44.3332 49.3509 44.3048 49.4604 44.2198 49.5105L29.069 58.4563C29.0406 58.4732 29.0095 58.4812 28.9786 58.4812ZM30.4425 53.6672C29.6028 53.6672 28.9198 52.9841 28.9198 52.1444C28.9198 51.3075 29.6028 50.6266 30.4425 50.6266C31.2794 50.6266 31.9604 51.3075 31.9604 52.1444C31.9604 52.9841 31.2794 53.6672 30.4425 53.6672ZM30.4425 50.9837C29.7998 50.9837 29.277 51.5044 29.277 52.1444C29.277 52.7872 29.7998 53.3101 30.4425 53.3101C31.0826 53.3101 31.6032 52.7872 31.6032 52.1444C31.6032 51.5044 31.0826 50.9837 30.4425 50.9837ZM106.082 108.326C105.987 108.299 105.932 108.201 105.959 108.106C109.35 96.1569 106.005 89.1274 105.971 89.0577C105.927 88.9692 105.964 88.8622 106.052 88.8187C106.141 88.7751 106.248 88.8119 106.291 88.9003C106.326 88.9712 109.73 96.124 106.303 108.203C106.276 108.297 106.179 108.353 106.082 108.326Z" fill="black"/>
<path d="M50.3475 180.015L25.7459 168.274C25.6569 168.231 25.6193 168.125 25.6617 168.036C25.7043 167.946 25.8109 167.909 25.8998 167.951L50.5014 179.692C50.5904 179.735 50.628 179.841 50.5856 179.93C50.5433 180.019 50.437 180.057 50.3475 180.015Z" fill="black"/>
<path d="M62.8234 177.719C62.7272 177.719 62.6478 177.642 62.645 177.546C62.6421 177.447 62.7195 177.365 62.8179 177.362L88.7487 176.576C88.8597 176.574 88.9297 176.651 88.9325 176.749C88.9355 176.848 88.858 176.93 88.7596 176.933L62.8289 177.719C62.8269 177.719 62.8251 177.719 62.8234 177.719Z" fill="black"/>
<path d="M138.836 124.394L138.075 124.313C137.977 124.303 137.906 124.215 137.916 124.117C137.927 124.019 138.011 123.948 138.113 123.958L138.874 124.039C138.972 124.049 139.043 124.137 139.033 124.235C139.022 124.336 138.931 124.405 138.836 124.394ZM74.9794 174.167L74.7159 172.644C74.699 172.547 74.7642 172.455 74.8614 172.438C74.955 172.421 75.0509 172.486 75.0676 172.583L75.3311 174.106C75.3481 174.203 75.2828 174.295 75.1857 174.312C75.0874 174.329 74.996 174.263 74.9794 174.167ZM74.4524 171.121L74.1888 169.599C74.1719 169.502 74.2372 169.409 74.3343 169.392C74.4292 169.375 74.5236 169.44 74.5405 169.538L74.8041 171.06C74.821 171.158 74.7558 171.25 74.6586 171.267C74.5603 171.284 74.4689 171.218 74.4524 171.121ZM73.9253 168.076L73.6618 166.554C73.6448 166.456 73.7101 166.364 73.8072 166.347C73.9009 166.33 73.9968 166.395 74.0135 166.493L74.277 168.015C74.294 168.112 74.2287 168.205 74.1315 168.222C74.0333 168.238 73.9419 168.172 73.9253 168.076ZM73.3982 165.031L73.1347 163.508C73.1178 163.411 73.183 163.319 73.2802 163.302C73.3751 163.285 73.4695 163.35 73.4864 163.447L73.7499 164.97C73.7669 165.067 73.7016 165.159 73.6045 165.176C73.5062 165.193 73.4148 165.127 73.3982 165.031ZM72.8714 161.985L72.6079 160.463C72.591 160.366 72.6562 160.273 72.7534 160.256C72.8468 160.24 72.9427 160.304 72.9596 160.402L73.2231 161.925C73.2401 162.022 73.1748 162.114 73.0777 162.131C72.9794 162.148 72.888 162.082 72.8714 161.985ZM72.3444 158.94L72.0808 157.417C72.0639 157.32 72.1292 157.228 72.2263 157.211C72.3209 157.195 72.4156 157.259 72.4325 157.356L72.6961 158.879C72.713 158.976 72.6477 159.069 72.5506 159.085C72.4523 159.102 72.3609 159.036 72.3444 158.94ZM71.817 155.895L71.5543 154.372C71.5378 154.274 71.6031 154.182 71.7002 154.165C71.7989 154.149 71.89 154.214 71.9062 154.311L72.1688 155.834C72.1857 155.931 72.1204 156.023 72.0233 156.04C71.925 156.057 71.8336 155.991 71.817 155.895ZM71.2987 152.846C71.2153 152.337 71.1346 151.827 71.0573 151.317C71.0426 151.22 71.1096 151.129 71.2073 151.114C71.3022 151.1 71.3956 151.166 71.4105 151.264C71.4873 151.773 71.568 152.281 71.6509 152.788C71.6669 152.886 71.6008 152.977 71.5037 152.993C71.4072 153.009 71.3146 152.944 71.2987 152.846ZM70.8391 149.784C70.7714 149.272 70.7086 148.759 70.6526 148.246C70.6419 148.148 70.7129 148.06 70.8107 148.05C70.9104 148.038 70.9971 148.109 71.0078 148.208C71.0633 148.718 71.1256 149.228 71.1933 149.738C71.2063 149.835 71.1375 149.925 71.0397 149.938C70.9454 149.951 70.8525 149.885 70.8391 149.784ZM70.6837 146.867C70.5916 146.867 70.5136 146.796 70.5059 146.703C70.4648 146.187 70.4316 145.671 70.4082 145.155C70.4037 145.056 70.48 144.973 70.5783 144.968C70.6737 144.963 70.7607 145.04 70.7649 145.138C70.7883 145.65 70.821 146.163 70.8621 146.674C70.8698 146.773 70.7965 146.859 70.6982 146.866C70.6934 146.867 70.6884 146.867 70.6837 146.867ZM70.5465 143.78C70.4481 143.78 70.3684 143.7 70.3679 143.602C70.3682 143.551 70.3606 142.878 70.3943 142.05C70.398 141.951 70.4862 141.875 70.5798 141.878C70.6782 141.882 70.755 141.965 70.751 142.064C70.733 142.512 70.7243 142.961 70.7246 143.409L70.7251 143.601C70.7253 143.7 70.6421 143.798 70.5465 143.78ZM70.6571 140.693C70.5587 140.684 70.4864 140.597 70.4954 140.499C70.543 139.981 70.6062 139.461 70.6835 138.954C70.6987 138.857 70.7921 138.79 70.887 138.805C70.9846 138.819 71.0514 138.911 71.0367 139.008C70.9602 139.508 70.8979 140.02 70.8511 140.531C70.8422 140.629 70.7559 140.702 70.6571 140.693ZM71.1034 137.636C71.007 137.615 70.9458 137.52 70.9669 137.423C71.0773 136.914 71.2053 136.406 71.3473 135.914C71.3749 135.819 71.4738 135.764 71.5682 135.791C71.6631 135.819 71.7177 135.918 71.6905 136.012C71.5508 136.498 71.4247 136.998 71.3156 137.499C71.2952 137.595 71.2009 137.657 71.1034 137.636ZM71.9364 134.662C71.8437 134.628 71.7961 134.525 71.83 134.433C72.0103 133.939 72.2089 133.454 72.4193 132.99C72.4602 132.9 72.5665 132.861 72.6557 132.902C72.7456 132.942 72.7852 133.048 72.7446 133.138C72.5377 133.594 72.3426 134.07 72.1653 134.555C72.1312 134.649 72.0275 134.695 71.9364 134.662ZM73.2767 131.863C73.2473 131.863 73.2177 131.856 73.19 131.841C73.1038 131.793 73.0729 131.684 73.121 131.598C73.3763 131.14 73.6516 130.693 73.939 130.269C73.9943 130.188 74.1054 130.167 74.1871 130.222C74.2685 130.278 74.2897 130.389 74.2344 130.47C73.9527 130.885 73.6829 131.323 73.4329 131.772C73.4002 131.83 73.3395 131.863 73.2767 131.863ZM74.9 129.272C74.8243 129.209 74.8138 129.097 74.8766 129.021C75.2108 128.618 75.5665 128.231 75.9339 127.87C76.0044 127.801 76.1175 127.803 76.1865 127.873C76.2555 127.943 76.2545 128.056 76.184 128.125C75.8253 128.477 75.4779 128.855 75.1516 129.249C75.0885 129.325 74.9762 129.335 74.9 129.272ZM77.0777 127.087C77.0164 127.009 77.0297 126.897 77.1069 126.836C77.5104 126.516 77.9383 126.212 78.3787 125.93C78.4624 125.877 78.5722 125.902 78.6253 125.985C78.6783 126.068 78.6542 126.178 78.571 126.231C78.1408 126.506 77.7226 126.804 77.3286 127.116C77.2507 127.177 77.1392 127.164 77.0777 127.087ZM79.6545 125.395C79.6097 125.307 79.6443 125.199 79.732 125.154C80.1841 124.922 80.6611 124.703 81.1493 124.503C81.2397 124.467 81.3448 124.509 81.3822 124.601C81.4195 124.692 81.3759 124.796 81.2848 124.834C80.8058 125.03 80.338 125.245 79.8949 125.472C79.8068 125.517 79.6994 125.482 79.6545 125.395ZM82.4986 124.193C82.4682 124.099 82.5195 123.999 82.6134 123.968C83.0924 123.813 83.5958 123.668 84.1099 123.537C84.2043 123.513 84.3027 123.571 84.3268 123.666C84.351 123.762 84.2932 123.859 84.1976 123.883C83.6912 124.012 83.1953 124.155 82.7235 124.308C82.6291 124.338 82.5287 124.287 82.4986 124.193ZM136.539 124.156C136.027 124.105 135.514 124.055 135.002 124.006C134.904 123.997 134.832 123.91 134.841 123.811C134.851 123.713 134.939 123.641 135.036 123.651C135.549 123.699 136.062 123.749 136.574 123.801C136.673 123.81 136.744 123.898 136.734 123.996C136.725 124.094 136.637 124.166 136.539 124.156ZM133.464 123.863C132.951 123.817 132.438 123.772 131.925 123.728C131.827 123.72 131.754 123.633 131.763 123.535C131.771 123.437 131.858 123.362 131.956 123.372C132.469 123.416 132.983 123.461 133.496 123.508C133.594 123.517 133.667 123.603 133.658 123.702C133.649 123.801 133.56 123.872 133.464 123.863ZM130.401 123.601C130.396 123.601 130.391 123.601 130.386 123.6C129.874 123.559 129.36 123.519 128.847 123.48C128.748 123.473 128.675 123.387 128.682 123.289C128.69 123.19 128.776 123.119 128.874 123.124C129.388 123.163 129.901 123.203 130.415 123.244C130.513 123.252 130.587 123.338 130.579 123.437C130.571 123.53 130.493 123.601 130.401 123.601ZM85.4871 123.407C85.4679 123.31 85.5312 123.216 85.6278 123.197C86.1198 123.101 86.6351 123.012 87.1599 122.935C87.2538 122.919 87.348 122.987 87.3627 123.085C87.3771 123.182 87.3099 123.273 87.2122 123.288C86.6929 123.365 86.183 123.452 85.6966 123.548C85.5977 123.567 85.5058 123.502 85.4871 123.407ZM127.319 123.368C127.315 123.368 127.31 123.368 127.306 123.367C126.793 123.331 126.279 123.296 125.765 123.262C125.667 123.255 125.593 123.17 125.599 123.072C125.606 122.974 125.694 122.898 125.789 122.906C126.303 122.94 126.817 122.975 127.331 123.011C127.43 123.018 127.504 123.103 127.497 123.202C127.49 123.296 127.412 123.368 127.319 123.368ZM124.235 123.164C124.231 123.164 124.228 123.164 124.224 123.164C123.71 123.133 123.196 123.102 122.682 123.073C122.584 123.068 122.508 122.984 122.514 122.885C122.52 122.787 122.617 122.712 122.702 122.717C123.217 122.746 123.731 122.776 124.246 122.807C124.344 122.813 124.419 122.898 124.413 122.997C124.407 123.091 124.329 123.164 124.235 123.164ZM88.5416 122.934C88.5309 122.836 88.6016 122.747 88.6998 122.737C89.2134 122.68 89.7285 122.632 90.2441 122.591C90.3462 122.585 90.4284 122.657 90.4364 122.755C90.4441 122.854 90.3706 122.94 90.2725 122.947C89.7604 122.988 89.2488 123.036 88.7386 123.092C88.6429 123.103 88.5528 123.033 88.5416 122.934ZM121.15 122.991C121.146 122.991 121.143 122.991 121.14 122.99C120.626 122.964 120.112 122.939 119.598 122.915C119.499 122.91 119.423 122.827 119.427 122.728C119.432 122.63 119.527 122.554 119.614 122.558C120.129 122.582 120.644 122.607 121.159 122.634C121.257 122.639 121.333 122.723 121.328 122.821C121.323 122.917 121.244 122.991 121.15 122.991ZM118.062 122.847C118.059 122.847 118.057 122.847 118.054 122.846C117.54 122.825 117.026 122.805 116.511 122.786C116.412 122.782 116.336 122.699 116.339 122.601C116.343 122.502 116.411 122.427 116.524 122.429C117.04 122.448 117.555 122.468 118.069 122.49C118.168 122.494 118.245 122.577 118.24 122.676C118.236 122.772 118.157 122.847 118.062 122.847ZM91.8001 122.845C91.7062 122.845 91.6275 122.771 91.622 122.676C91.6166 122.578 91.692 122.493 91.7904 122.488C92.3075 122.459 92.8234 122.435 93.337 122.415C93.4361 122.412 93.5183 122.488 93.5223 122.586C93.5263 122.685 93.4496 122.768 93.3509 122.772C92.8393 122.792 92.3255 122.815 91.8104 122.844C91.8069 122.844 91.8036 122.845 91.8001 122.845ZM114.973 122.733C114.709 122.725 114.22 122.708 113.424 122.687C113.325 122.684 113.248 122.602 113.25 122.503C113.253 122.405 113.343 122.328 113.433 122.33C113.949 122.344 114.464 122.359 114.979 122.376C115.078 122.379 115.155 122.461 115.152 122.56C115.149 122.657 115.069 122.733 114.973 122.733ZM94.8876 122.719C94.7914 122.719 94.7119 122.642 94.7092 122.546C94.706 122.447 94.7834 122.365 94.8821 122.362C95.3974 122.346 95.9125 122.331 96.4276 122.318C96.4294 122.318 96.4309 122.318 96.4324 122.318C96.529 122.318 96.6082 122.395 96.611 122.492C96.6135 122.591 96.5355 122.673 96.4371 122.675C95.9225 122.688 95.4079 122.703 94.893 122.719C94.8913 122.719 94.8893 122.719 94.8876 122.719ZM111.884 122.649C111.883 122.649 111.881 122.649 111.88 122.648C111.366 122.637 110.851 122.627 110.336 122.618C110.238 122.616 110.159 122.535 110.161 122.436C110.162 122.337 110.253 122.243 110.342 122.261C110.858 122.27 111.373 122.28 111.888 122.292C111.987 122.294 112.065 122.375 112.063 122.474C112.06 122.571 111.981 122.649 111.884 122.649ZM97.9775 122.639C97.8806 122.639 97.8011 122.561 97.7989 122.464C97.7969 122.366 97.8751 122.284 97.9737 122.282C98.4888 122.271 99.0042 122.261 99.5195 122.253C99.6276 122.245 99.6994 122.33 99.7011 122.429C99.7026 122.527 99.6239 122.609 99.5255 122.61C99.0107 122.618 98.4958 122.628 97.9812 122.639C97.9799 122.639 97.9787 122.639 97.9775 122.639ZM108.794 122.594C108.315 122.589 108.015 122.584 107.247 122.578C107.149 122.577 107.07 122.497 107.07 122.398C107.071 122.3 107.151 122.221 107.249 122.221C107.249 122.221 107.25 122.221 107.25 122.221C107.765 122.225 108.281 122.23 108.796 122.237C108.895 122.238 108.974 122.319 108.973 122.418C108.971 122.516 108.892 122.594 108.794 122.594ZM101.067 122.589C100.97 122.589 100.89 122.51 100.889 122.412C100.888 122.314 100.967 122.233 101.065 122.232C102.116 122.22 102.665 122.218 102.613 122.218C102.711 122.218 102.791 122.297 102.791 122.395C102.792 122.494 102.713 122.574 102.614 122.575C102.099 122.578 101.584 122.583 101.069 122.589C101.069 122.589 101.068 122.589 101.067 122.589ZM105.703 122.57C105.703 122.57 105.704 122.57 105.703 122.57C105.652 122.57 104.107 122.569 104.158 122.569C104.06 122.569 103.98 122.489 103.979 122.39C103.979 122.292 104.059 122.212 104.158 122.211C104.21 122.211 105.805 122.212 105.704 122.212C105.802 122.213 105.882 122.293 105.882 122.392C105.882 122.49 105.802 122.57 105.703 122.57ZM75.376 176.457L75.2455 175.703C75.2285 175.606 75.2935 175.514 75.3909 175.497C75.4856 175.48 75.5802 175.545 75.5972 175.642L75.7277 176.396C75.7446 176.494 75.6796 176.586 75.5822 176.603C75.4833 176.62 75.3924 176.553 75.376 176.457Z" fill="black"/>
<path d="M101.982 104.315C101.142 104.315 100.459 103.632 100.459 102.793C100.459 101.956 101.142 101.275 101.982 101.275C102.819 101.275 103.5 101.956 103.5 102.793C103.5 103.632 102.819 104.315 101.982 104.315ZM101.982 101.632C101.339 101.632 100.816 102.153 100.816 102.793C100.816 103.435 101.339 103.958 101.982 103.958C102.622 103.958 103.142 103.435 103.142 102.793C103.142 102.153 102.622 101.632 101.982 101.632Z" fill="black"/>
<path d="M113.608 28.5337L114.283 39.5896L109.3 45.6101L104.575 40.0166L104.131 26.9834" fill="white"/>
<path d="M109.165 45.725L104.439 40.1318C104.414 40.1012 104.399 40.0628 104.398 40.0227L103.954 26.9893C103.95 26.8907 104.027 26.8081 104.126 26.8047C104.22 26.8032 104.307 26.8786 104.31 26.9771L104.752 39.9487L109.3 45.3315L114.101 39.5301L113.431 28.5443C113.425 28.4458 113.5 28.3612 113.598 28.3551C113.696 28.3479 113.781 28.4239 113.787 28.5225L114.462 39.5787C114.465 39.624 114.45 39.6686 114.421 39.7035L109.439 45.7236C109.368 45.8093 109.237 45.8101 109.165 45.725Z" fill="black"/>
<path d="M113.224 26.3874C114.164 30.9912 111.486 35.4262 107.237 36.294C102.987 37.1619 98.7785 34.1333 97.8383 29.5294C96.8981 24.9258 99.5813 20.4835 103.831 19.6156C108.08 18.7477 112.283 21.7837 113.224 26.3874Z" fill="white"/>
<path d="M97.6632 29.5643C97.1994 27.2934 97.58 24.9899 98.7352 23.0783C99.8935 21.1617 101.69 19.8695 103.795 19.4398C108.128 18.5545 112.439 21.6543 113.398 26.3507C114.357 31.0438 111.608 35.5825 107.272 36.468C103.042 37.3326 98.6474 34.3854 97.6632 29.5643ZM105.285 19.6458C104.816 19.6458 104.341 19.6926 103.866 19.7896C101.861 20.1992 100.147 21.4327 99.0409 23.263C97.9322 25.0976 97.567 27.31 98.0129 29.4928C98.9478 34.0715 103.114 36.9524 107.201 36.1182C111.344 35.272 113.967 30.9224 113.048 26.4222C112.234 22.4353 108.912 19.6458 105.285 19.6458Z" fill="black"/>
<path d="M103.67 19.7614C101.914 23.1096 106.824 29.2418 113.359 29.197C113.359 29.197 123.831 24.9612 116.298 15.5365C110.247 7.96573 95.169 9.56331 93.4848 20.7595C92.0155 30.5277 98.8044 32.1461 98.8044 32.1461C95.8943 25.9743 99.9408 20.3158 103.67 19.7614ZM102.702 32.7624C102.629 32.697 102.622 32.5847 102.687 32.5109C102.752 32.4374 102.865 32.4301 102.939 32.4951C102.943 32.4983 103.326 32.8291 103.786 32.7738C104.091 32.7376 104.372 32.5397 104.622 32.1859C104.679 32.1056 104.79 32.0858 104.871 32.1429C104.951 32.1997 104.971 32.3111 104.914 32.3916C104.602 32.8333 104.236 33.0814 103.824 33.1289C103.406 33.1776 102.956 32.9897 102.702 32.7624Z" fill="black"/>
<path d="M102.249 28.8014C102.401 28.4504 102.405 28.0299 102.259 27.6767C102.221 27.5855 102.264 27.4811 102.355 27.4434C102.446 27.4061 102.551 27.4488 102.589 27.5402C102.774 27.9876 102.769 28.499 102.577 28.9433C102.278 29.5928 102.768 29.7167 103.155 29.5975C103.329 29.5439 103.49 29.4472 103.667 29.3358C103.751 29.2831 103.86 29.3084 103.913 29.3917C103.966 29.4751 103.941 29.5854 103.857 29.6379C103.666 29.7585 103.476 29.8723 103.26 29.9388C102.591 30.1453 101.813 29.7492 102.249 28.8014Z" fill="black"/>
<path d="M113.861 10.9116C115.733 8.62835 115.399 5.26019 113.116 3.38863C110.833 1.51706 107.464 1.85081 105.593 4.13408C103.721 6.41735 104.055 9.78551 106.338 11.6571C108.622 13.5286 111.99 13.1949 113.861 10.9116Z" fill="black"/>
<path d="M114.586 28.9426C115.608 27.6963 115.426 25.8578 114.179 24.8362C112.933 23.8146 111.095 23.9967 110.073 25.2431C109.051 26.4894 109.234 28.3279 110.48 29.3495C111.726 30.3711 113.565 30.1889 114.586 28.9426Z" fill="white"/>
<path d="M112.334 30.1884C112.27 30.1884 112.205 30.1864 112.14 30.1824C110.436 30.0777 109.135 28.6061 109.24 26.9018C109.344 25.1976 110.82 23.898 112.52 24.0011C114.228 24.106 115.526 25.5743 115.421 27.2817C115.32 28.9281 113.953 30.1884 112.334 30.1884ZM112.329 24.3523C110.894 24.3523 109.685 25.4729 109.596 26.9237C109.503 28.4314 110.655 29.7334 112.162 29.8259C113.662 29.9191 114.971 28.7794 115.064 27.2598C115.157 25.7493 114.009 24.4503 112.498 24.3575C112.442 24.3541 112.385 24.3523 112.329 24.3523ZM100.292 28.1891C100.264 28.6456 99.8702 28.9937 99.4209 28.9661C98.9643 28.938 98.6162 28.5443 98.6442 28.0878C98.6723 27.6314 99.066 27.2832 99.5226 27.3113C99.972 27.3389 100.32 27.7326 100.292 28.1891ZM106.2 27.1649C106.172 27.6214 105.778 27.9695 105.329 27.9419C104.872 27.9138 104.524 27.5201 104.552 27.0636C104.58 26.6072 104.974 26.259 105.431 26.2871C105.88 26.3147 106.228 26.7085 106.2 27.1649ZM100.711 25.9908C99.67 25.4691 98.9046 25.8503 98.8727 25.8667C98.7848 25.9118 98.6777 25.8774 98.6323 25.7903C98.587 25.7031 98.6204 25.5959 98.7076 25.5502C98.7457 25.5302 99.6606 25.0647 100.871 25.6716C100.959 25.7157 100.995 25.823 100.951 25.9112C100.907 25.9988 100.8 26.0353 100.711 25.9908Z" fill="black"/>
</svg>
